<svg width="26" height="26" viewBox="0 0 26 26" fill="none" xmlns="http://www.w3.org/2000/svg">
<g clip-path="url(#clip0_634_715)">
<path d="M7.66853 25.5133C7.15592 25.1722 6.7016 24.7508 6.32303 24.2653C5.90661 23.7641 5.52079 23.2383 5.16766 22.6906C4.33897 21.4766 3.6891 20.1498 3.23797 18.7508C2.69603 17.1258 2.43359 15.5683 2.43359 14.0448C2.43359 12.3435 2.80166 10.8582 3.52153 9.61021C4.05516 8.63475 4.83974 7.8196 5.79409 7.24908C6.71897 6.67462 7.78166 6.36025 8.87022 6.33908C9.25128 6.33908 9.66159 6.39433 10.0971 6.49996C10.4099 6.58852 10.791 6.72827 11.2565 6.90215C11.8488 7.13046 12.1747 7.27021 12.2852 7.30433C12.6321 7.43108 12.9238 7.48633 13.1529 7.48633C13.3268 7.48633 13.5722 7.43108 13.8508 7.34658C14.0077 7.29133 14.3034 7.19383 14.7267 7.01265C15.146 6.8599 15.4758 6.72908 15.7383 6.63158C16.1405 6.51296 16.5297 6.40327 16.8766 6.34802C17.2879 6.28318 17.7053 6.266 18.1205 6.29683C18.8401 6.34386 19.5488 6.49635 20.2241 6.7494C21.3283 7.19383 22.2212 7.88771 22.8858 8.87408C22.6049 9.04722 22.3413 9.24693 22.0985 9.47046C21.5701 9.93893 21.12 10.4889 20.7652 11.0995C20.3015 11.934 20.0611 12.8741 20.0673 13.8287C20.0843 15.0011 20.385 16.0338 20.9773 16.9268C21.4127 17.5886 21.9787 18.1545 22.6405 18.59C22.9793 18.8183 23.271 18.9751 23.5505 19.0807C23.4197 19.487 23.2799 19.8802 23.115 20.2702C22.7409 21.1448 22.2875 21.9833 21.7605 22.7751C21.2909 23.4568 20.9228 23.9646 20.6433 24.3026C20.2078 24.8186 19.7886 25.2126 19.3653 25.4873C18.8997 25.796 18.3497 25.961 17.7907 25.961C17.4121 25.9755 17.0336 25.9297 16.6694 25.8253C16.3566 25.7196 16.047 25.6051 15.7423 25.4743C15.4256 25.3288 15.099 25.2058 14.7649 25.1062C13.9392 24.8941 13.0734 24.8927 12.247 25.1021C11.9082 25.1996 11.5823 25.3134 11.2606 25.4531C10.808 25.6433 10.5074 25.7708 10.3335 25.8253C9.98659 25.9268 9.62666 25.9902 9.26266 26.0113C8.69959 26.0113 8.17472 25.8505 7.65472 25.5246L7.66853 25.5133ZM15.0948 5.51358C14.3587 5.88165 13.6558 6.03846 12.9579 5.98727C12.8482 5.28446 12.9579 4.5654 13.2496 3.77808C13.4979 3.11107 13.8648 2.49448 14.3327 1.95808C14.8267 1.39341 15.4261 0.930576 16.0974 0.59552C16.8124 0.227458 17.4941 0.0283955 18.1457 -0.000854492C18.2302 0.735271 18.1457 1.45921 17.8752 2.24165C17.6248 2.93331 17.2585 3.57734 16.7921 4.14615C16.316 4.71159 15.7318 5.17622 15.0737 5.51277L15.0948 5.51358Z" fill="black"/>
</g>
<defs>
<clipPath id="clip0_634_715">
<rect width="26" height="26" fill="white"/>
</clipPath>
</defs>
</svg>
