<svg width="180" height="51" viewBox="0 0 180 51" fill="none" xmlns="http://www.w3.org/2000/svg">
<path d="M21.4844 21.0859H35.3359V23.6172H34.0234C33.5547 23.6172 33.1953 23.6953 32.9453 23.8516C32.7109 23.9922 32.5938 24.2656 32.5938 24.6719V34.7969C31.4688 34.7969 30.2188 35.0312 28.8438 35.5L25.8438 36.4844C23.6094 37.1875 21.1953 37.5391 18.6016 37.5391C16.0234 37.5391 13.5781 37.0781 11.2656 36.1562C8.96875 35.2188 7.00781 33.9453 5.38281 32.3359C3.75781 30.7266 2.5 28.8359 1.60938 26.6641C0.734375 24.4922 0.296875 22.3125 0.296875 20.125C0.296875 17.9219 0.523438 15.9844 0.976562 14.3125C1.44531 12.6406 2.09375 11.1172 2.92188 9.74219C3.75 8.36719 4.73438 7.14844 5.875 6.08594C7.03125 5.00781 8.29688 4.10156 9.67188 3.36719C12.5 1.86719 15.5781 1.11719 18.9062 1.11719C24.0469 1.11719 28.125 1.91406 31.1406 3.50781L30.6016 9.29688H29.0547C29.0547 7.85938 28.1641 6.63281 26.3828 5.61719C24.4141 4.49219 21.8828 3.92969 18.7891 3.92969C14.7734 3.92969 11.4375 5.375 8.78125 8.26562C6.1875 11.0781 4.89062 14.4922 4.89062 18.5078C4.89062 22.9141 6.10938 26.6641 8.54688 29.7578C11.1719 33.0703 14.7109 34.7266 19.1641 34.7266C24.0703 34.7266 26.9609 33.6719 27.8359 31.5625C28.1016 30.9062 28.2344 30.1953 28.2344 29.4297V24.6719C28.2344 24.25 28.1094 23.9688 27.8594 23.8281C27.625 23.6875 27.3047 23.6172 26.8984 23.6172H21.4844V21.0859ZM62.8281 35.0078L66.0625 34.4688L62.3594 25.3516H48.2969L44.6172 34.4688L47.9219 35.0078V37H37.8672V35.0078L41.5703 34.4688L53.875 4.04688L52.8906 1.72656L56.6875 0.132812L70.7031 34.4688L74.4766 35.0078V37H62.8281V35.0078ZM49.3984 22.5156H61.3281L55.3516 7.46875L49.3984 22.5156ZM100.703 7.02344C101.125 8.10156 101.336 9.32812 101.336 10.7031C101.336 12.0781 101.117 13.3281 100.68 14.4531C100.258 15.5781 99.6406 16.5469 98.8281 17.3594C97.2812 18.9062 95.0078 19.9922 92.0078 20.6172L92.4297 19.8438L101.688 33.9062L103.328 34.6328L106.633 35.0078V37H98.5938L88.0469 20.1484L90.0156 20.9922H83.7344V34.4688L87.25 35.0078V37H75.7656V35.0078L79.3984 34.4688V4.1875L75.7656 3.64844V1.65625H87.3203C94.8047 1.65625 99.2656 3.44531 100.703 7.02344ZM83.7344 4.49219V18.4609H87.2031C92.2656 18.4609 95.3281 16.9844 96.3906 14.0312C96.7188 13.1406 96.8828 12.1797 96.8828 11.1484C96.8828 10.1016 96.7344 9.16406 96.4375 8.33594C96.1406 7.50781 95.6406 6.8125 94.9375 6.25C93.4844 5.07812 91.0234 4.49219 87.5547 4.49219H83.7344ZM130.891 35.0078L134.125 34.4688L130.422 25.3516H116.359L112.68 34.4688L115.984 35.0078V37H105.93V35.0078L109.633 34.4688L121.938 4.04688L120.953 1.72656L124.75 0.132812L138.766 34.4688L142.539 35.0078V37H130.891V35.0078ZM117.461 22.5156H129.391L123.414 7.46875L117.461 22.5156ZM152.688 34.9141C152.688 38.9609 151.875 42.2344 150.25 44.7344C149.25 46.2344 148.398 47.2734 147.695 47.8516C147.008 48.4453 146.422 48.8906 145.938 49.1875C144.891 49.8125 144.008 50.125 143.289 50.125C141.336 50.125 139.727 49.6328 138.461 48.6484L139.938 44.0312H141.461C141.461 44.9219 141.875 45.5938 142.703 46.0469C143.047 46.2188 143.484 46.3047 144.016 46.3047C144.562 46.3047 145.094 46.1719 145.609 45.9062C146.125 45.6562 146.578 45.2656 146.969 44.7344C147.859 43.5312 148.305 41.875 148.305 39.7656V4.1875L144.742 3.64844V1.65625H156.227V3.64844L152.688 4.1875V34.9141ZM162.625 10.1406C162.625 11.2344 162.82 12.2578 163.211 13.2109C163.602 14.1484 164.141 14.9688 164.828 15.6719C166.281 17.1562 168.07 17.8984 170.195 17.8984C172.305 17.8984 174.094 17.1562 175.562 15.6719C177.031 14.1562 177.766 12.3047 177.766 10.1172C177.766 7.94531 177.031 6.09375 175.562 4.5625C174.094 3.04687 172.305 2.28906 170.195 2.28906C168.07 2.28906 166.281 3.04687 164.828 4.5625C163.359 6.07812 162.625 7.9375 162.625 10.1406ZM173.734 7.46875C173.734 8.89062 172.992 9.8125 171.508 10.2344L173.828 14.1953L174.883 14.3594V14.7578H172.844L170.289 10.4453H168.297V14.1953L169.305 14.3594V14.7578H166.047V14.3594L167.031 14.1953V5.66406L166.047 5.54688V5.03125H170.148C172.539 5.03125 173.734 5.84375 173.734 7.46875ZM170.148 9.83594C171.68 9.83594 172.445 9.10156 172.445 7.63281C172.445 6.96094 172.266 6.47656 171.906 6.17969C171.547 5.86719 170.883 5.71094 169.914 5.71094H168.297V9.83594H170.148ZM161.195 10.0938C161.195 8.875 161.422 7.72656 161.875 6.64844C162.328 5.55469 162.961 4.59375 163.773 3.76562C165.523 2 167.68 1.11719 170.242 1.11719C172.773 1.11719 174.898 2 176.617 3.76562C178.305 5.51563 179.148 7.63281 179.148 10.1172C179.148 12.5859 178.305 14.6797 176.617 16.3984C174.883 18.1641 172.758 19.0469 170.242 19.0469C167.695 19.0469 165.539 18.1641 163.773 16.3984C162.055 14.6797 161.195 12.5781 161.195 10.0938Z" fill="black"/>
<path d="M-2 23.0547H182.219V26.1016H-2V23.0547Z" fill="black"/>
</svg>
